<?xml version="1.0" encoding="UTF-8"?>
<svg xmlns="http://www.w3.org/2000/svg" xmlns:xlink="http://www.w3.org/1999/xlink" width="841.89pt" height="158.7pt" viewBox="0 0 841.89 158.7" version="1.1">
<defs>
<clipPath id="clip1">
  <path d="M 0 0 L 841.890625 0 L 841.890625 158.699219 L 0 158.699219 Z M 0 0 "/>
</clipPath>
<clipPath id="clip2">
  <path d="M 0 133 L 841.890625 133 L 841.890625 139 L 0 139 Z M 0 133 "/>
</clipPath>
<clipPath id="clip3">
  <path d="M 0 20 L 841.890625 20 L 841.890625 26 L 0 26 Z M 0 20 "/>
</clipPath>
</defs>
<g id="surface1">
<g clip-path="url(#clip1)" clip-rule="nonzero">
<path style=" stroke:none;fill-rule:nonzero;fill:rgb(0%,15.699768%,36.898804%);fill-opacity:1;" d="M 0 158.699219 L 841.890625 158.699219 L 841.890625 0 L 0 0 Z M 0 158.699219 "/>
</g>
<g clip-path="url(#clip2)" clip-rule="nonzero">
<path style=" stroke:none;fill-rule:nonzero;fill:rgb(94.499207%,68.598938%,0%);fill-opacity:1;" d="M 0.253906 138.144531 L 841.636719 138.144531 L 841.636719 133.578125 L 0.253906 133.578125 Z M 0.253906 138.144531 "/>
</g>
<path style=" stroke:none;fill-rule:nonzero;fill:rgb(100%,92.89856%,61.599731%);fill-opacity:1;" d="M 518.667969 55.285156 L 518.667969 64.308594 C 517.644531 64.21875 516.402344 64.167969 514.886719 64.167969 C 499.441406 64.167969 486.777344 74.367188 486.777344 93.347656 C 486.777344 107.863281 501.738281 121.210938 501.738281 121.210938 L 519.84375 109.941406 L 527.601563 120.824219 L 545.457031 110.285156 L 538.078125 104.472656 L 538.078125 34.105469 L 512.664063 49.136719 Z M 500.199219 81.988281 C 500.199219 77.714844 501.566406 73.730469 501.566406 73.730469 L 518.667969 81.90625 L 518.667969 104.257813 C 518.667969 104.257813 500.199219 96.273438 500.199219 81.988281 M 234.984375 99.855469 L 234.984375 118.320313 L 180.359375 118.320313 L 189.132813 106.339844 L 189.132813 51.71875 L 180.648438 40.113281 L 217.191406 40.113281 L 208.542969 51.933594 L 208.542969 112.136719 Z M 377.78125 80.363281 L 371.566406 74.652344 L 389.335938 64.167969 L 395.203125 73.230469 L 411.199219 63.992188 C 411.199219 63.992188 430.074219 68.210938 430.074219 83.71875 L 430.074219 106.972656 L 438.71875 118.792969 L 410.355469 118.792969 L 410.355469 87.09375 C 410.355469 78.742188 397.195313 76.964844 397.195313 76.964844 L 397.195313 106.972656 L 405.84375 118.792969 L 369.296875 118.792969 L 377.78125 107.1875 Z M 397.195313 76.964844 L 397.195313 106.972656 L 405.84375 118.792969 L 369.296875 118.792969 L 377.78125 107.1875 L 377.78125 86.027344 M 470.859375 63.460938 L 470.859375 106.972656 L 479.507813 118.792969 L 442.960938 118.792969 L 451.441406 107.1875 L 451.441406 86.027344 L 445.9375 78.503906 Z M 334.546875 65.09375 C 349.679688 65.09375 361.949219 77.363281 361.949219 92.496094 C 361.949219 107.628906 349.679688 119.902344 334.546875 119.902344 C 319.414063 119.902344 307.144531 107.628906 307.144531 92.496094 C 307.144531 77.363281 319.414063 65.09375 334.546875 65.09375 M 321.699219 80.542969 C 321.699219 101.792969 346.558594 111.613281 346.558594 111.613281 C 346.558594 111.613281 346.992188 106.128906 346.992188 101.941406 C 346.992188 83.722656 322.277344 73.464844 322.277344 73.464844 C 322.277344 73.464844 321.699219 77.507813 321.699219 80.542969 M 566.867188 81.988281 C 566.867188 77.714844 568.234375 73.730469 568.234375 73.730469 L 585.328125 81.90625 L 585.328125 104.257813 C 585.328125 104.257813 566.867188 96.273438 566.867188 81.988281 M 604.566406 70.742188 C 604.566406 70.742188 594.75 65.09375 579.238281 65.09375 C 564.105469 65.09375 551.839844 78.214844 551.839844 93.347656 C 551.839844 107.863281 566.800781 121.210938 566.800781 121.210938 L 584.902344 109.941406 L 592.671875 120.824219 L 611.894531 110.285156 L 604.511719 104.472656 Z M 279.171875 94.65625 L 260.050781 86.964844 C 259.589844 84.925781 259.328125 82.695313 259.328125 80.246094 C 259.328125 77.210938 259.910156 73.167969 259.910156 73.167969 C 259.910156 73.167969 277.761719 76.109375 279.171875 94.65625 M 298.664063 92.539063 L 298.664063 92.496094 C 298.664063 77.363281 286.394531 65.09375 271.261719 65.09375 C 256.132813 65.09375 243.863281 77.363281 243.863281 92.496094 C 243.863281 107.628906 256.132813 119.902344 271.261719 119.902344 C 278.296875 119.902344 284.707031 117.242188 289.5625 112.886719 C 279.628906 110.964844 268.949219 102.226563 268.949219 102.226563 Z M 450.863281 49.769531 L 470.859375 49.769531 L 470.859375 55.28125 L 450.863281 67.304688 Z M 652.835938 80.757813 L 630.457031 73.28125 C 630.457031 73.28125 632.445313 79.789063 646.652344 85.226563 C 654.429688 88.207031 664.839844 94.25 664.839844 104.207031 C 664.839844 116.683594 653.015625 120.929688 640.679688 120.929688 C 627.9375 120.929688 616.125 114.03125 616.125 114.03125 L 627.40625 104.605469 L 653.554688 113.234375 C 653.554688 113.234375 652.09375 107.394531 639.484375 101.289063 C 630.996094 97.183594 620.902344 92.398438 620.902344 82.707031 C 620.902344 71.710938 630.304688 64.253906 645.191406 64.253906 C 655.058594 64.253906 665.179688 70.804688 665.179688 70.804688 "/>
<g clip-path="url(#clip3)" clip-rule="nonzero">
<path style=" stroke:none;fill-rule:nonzero;fill:rgb(94.499207%,68.598938%,0%);fill-opacity:1;" d="M 0.253906 25.117188 L 841.636719 25.117188 L 841.636719 20.550781 L 0.253906 20.550781 Z M 0.253906 25.117188 "/>
</g>
</g>
</svg>
